<svg class="rich-terminal" viewBox="0 0 1482 782.0" xmlns="http://www.w3.org/2000/svg">
    <!-- Generated with Rich https://www.textualize.io -->
    <style>

    @font-face {
        font-family: "Fira Code";
        src: local("FiraCode-Regular"),
                url("https://cdnjs.cloudflare.com/ajax/libs/firacode/6.2.0/woff2/FiraCode-Regular.woff2") format("woff2"),
                url("https://cdnjs.cloudflare.com/ajax/libs/firacode/6.2.0/woff/FiraCode-Regular.woff") format("woff");
        font-style: normal;
        font-weight: 400;
    }
    @font-face {
        font-family: "Fira Code";
        src: local("FiraCode-Bold"),
                url("https://cdnjs.cloudflare.com/ajax/libs/firacode/6.2.0/woff2/FiraCode-Bold.woff2") format("woff2"),
                url("https://cdnjs.cloudflare.com/ajax/libs/firacode/6.2.0/woff/FiraCode-Bold.woff") format("woff");
        font-style: bold;
        font-weight: 700;
    }

    .terminal-2628213164-matrix {
        font-family: Fira Code, monospace;
        font-size: 20px;
        line-height: 24.4px;
        font-variant-east-asian: full-width;
    }

    .terminal-2628213164-title {
        font-size: 18px;
        font-weight: bold;
        font-family: arial;
    }

    .terminal-2628213164-r1 { fill: #c5c8c6 }
.terminal-2628213164-r2 { fill: #e8e7e5 }
.terminal-2628213164-r3 { fill: #d5d3cf }
.terminal-2628213164-r4 { fill: #e1e1e1;text-decoration: underline; }
.terminal-2628213164-r5 { fill: #e1e1e1 }
.terminal-2628213164-r6 { fill: #454a50 }
.terminal-2628213164-r7 { fill: #e2e3e3;font-weight: bold }
.terminal-2628213164-r8 { fill: #000000 }
.terminal-2628213164-r9 { fill: #dde8f3;font-weight: bold }
.terminal-2628213164-r10 { fill: #ddedf9 }
    </style>

    <defs>
    <clipPath id="terminal-2628213164-clip-terminal">
      <rect x="0" y="0" width="1463.0" height="731.0" />
    </clipPath>
    <clipPath id="terminal-2628213164-line-0">
    <rect x="0" y="1.5" width="1464" height="24.65"/>
            </clipPath>
<clipPath id="terminal-2628213164-line-1">
    <rect x="0" y="25.9" width="1464" height="24.65"/>
            </clipPath>
<clipPath id="terminal-2628213164-line-2">
    <rect x="0" y="50.3" width="1464" height="24.65"/>
            </clipPath>
<clipPath id="terminal-2628213164-line-3">
    <rect x="0" y="74.7" width="1464" height="24.65"/>
            </clipPath>
<clipPath id="terminal-2628213164-line-4">
    <rect x="0" y="99.1" width="1464" height="24.65"/>
            </clipPath>
<clipPath id="terminal-2628213164-line-5">
    <rect x="0" y="123.5" width="1464" height="24.65"/>
            </clipPath>
<clipPath id="terminal-2628213164-line-6">
    <rect x="0" y="147.9" width="1464" height="24.65"/>
            </clipPath>
<clipPath id="terminal-2628213164-line-7">
    <rect x="0" y="172.3" width="1464" height="24.65"/>
            </clipPath>
<clipPath id="terminal-2628213164-line-8">
    <rect x="0" y="196.7" width="1464" height="24.65"/>
            </clipPath>
<clipPath id="terminal-2628213164-line-9">
    <rect x="0" y="221.1" width="1464" height="24.65"/>
            </clipPath>
<clipPath id="terminal-2628213164-line-10">
    <rect x="0" y="245.5" width="1464" height="24.65"/>
            </clipPath>
<clipPath id="terminal-2628213164-line-11">
    <rect x="0" y="269.9" width="1464" height="24.65"/>
            </clipPath>
<clipPath id="terminal-2628213164-line-12">
    <rect x="0" y="294.3" width="1464" height="24.65"/>
            </clipPath>
<clipPath id="terminal-2628213164-line-13">
    <rect x="0" y="318.7" width="1464" height="24.65"/>
            </clipPath>
<clipPath id="terminal-2628213164-line-14">
    <rect x="0" y="343.1" width="1464" height="24.65"/>
            </clipPath>
<clipPath id="terminal-2628213164-line-15">
    <rect x="0" y="367.5" width="1464" height="24.65"/>
            </clipPath>
<clipPath id="terminal-2628213164-line-16">
    <rect x="0" y="391.9" width="1464" height="24.65"/>
            </clipPath>
<clipPath id="terminal-2628213164-line-17">
    <rect x="0" y="416.3" width="1464" height="24.65"/>
            </clipPath>
<clipPath id="terminal-2628213164-line-18">
    <rect x="0" y="440.7" width="1464" height="24.65"/>
            </clipPath>
<clipPath id="terminal-2628213164-line-19">
    <rect x="0" y="465.1" width="1464" height="24.65"/>
            </clipPath>
<clipPath id="terminal-2628213164-line-20">
    <rect x="0" y="489.5" width="1464" height="24.65"/>
            </clipPath>
<clipPath id="terminal-2628213164-line-21">
    <rect x="0" y="513.9" width="1464" height="24.65"/>
            </clipPath>
<clipPath id="terminal-2628213164-line-22">
    <rect x="0" y="538.3" width="1464" height="24.65"/>
            </clipPath>
<clipPath id="terminal-2628213164-line-23">
    <rect x="0" y="562.7" width="1464" height="24.65"/>
            </clipPath>
<clipPath id="terminal-2628213164-line-24">
    <rect x="0" y="587.1" width="1464" height="24.65"/>
            </clipPath>
<clipPath id="terminal-2628213164-line-25">
    <rect x="0" y="611.5" width="1464" height="24.65"/>
            </clipPath>
<clipPath id="terminal-2628213164-line-26">
    <rect x="0" y="635.9" width="1464" height="24.65"/>
            </clipPath>
<clipPath id="terminal-2628213164-line-27">
    <rect x="0" y="660.3" width="1464" height="24.65"/>
            </clipPath>
<clipPath id="terminal-2628213164-line-28">
    <rect x="0" y="684.7" width="1464" height="24.65"/>
            </clipPath>
    </defs>

    <rect fill="#292929" stroke="rgba(255,255,255,0.35)" stroke-width="1" x="1" y="1" width="1480" height="780" rx="8"/><text class="terminal-2628213164-title" fill="#c5c8c6" text-anchor="middle" x="740" y="27">Secret&#160;Santa</text>
            <g transform="translate(26,22)">
            <circle cx="0" cy="0" r="7" fill="#ff5f57"/>
            <circle cx="22" cy="0" r="7" fill="#febc2e"/>
            <circle cx="44" cy="0" r="7" fill="#28c840"/>
            </g>
        
    <g transform="translate(9, 41)" clip-path="url(#terminal-2628213164-clip-terminal)">
    <rect fill="#534838" x="0" y="1.5" width="12.2" height="24.65" shape-rendering="crispEdges"/><rect fill="#534838" x="12.2" y="1.5" width="12.2" height="24.65" shape-rendering="crispEdges"/><rect fill="#534838" x="24.4" y="1.5" width="73.2" height="24.65" shape-rendering="crispEdges"/><rect fill="#534838" x="97.6" y="1.5" width="622.2" height="24.65" shape-rendering="crispEdges"/><rect fill="#534838" x="719.8" y="1.5" width="0" height="24.65" shape-rendering="crispEdges"/><rect fill="#534838" x="719.8" y="1.5" width="622.2" height="24.65" shape-rendering="crispEdges"/><rect fill="#625849" x="1342" y="1.5" width="12.2" height="24.65" shape-rendering="crispEdges"/><rect fill="#625849" x="1354.2" y="1.5" width="97.6" height="24.65" shape-rendering="crispEdges"/><rect fill="#625849" x="1451.8" y="1.5" width="12.2" height="24.65" shape-rendering="crispEdges"/><rect fill="#1e1e1e" x="0" y="25.9" width="1464" height="24.65" shape-rendering="crispEdges"/><rect fill="#1e1e1e" x="0" y="50.3" width="1464" height="24.65" shape-rendering="crispEdges"/><rect fill="#1e1e1e" x="0" y="74.7" width="1464" height="24.65" shape-rendering="crispEdges"/><rect fill="#1e1e1e" x="0" y="99.1" width="1464" height="24.65" shape-rendering="crispEdges"/><rect fill="#1e1e1e" x="0" y="123.5" width="1464" height="24.65" shape-rendering="crispEdges"/><rect fill="#1e1e1e" x="0" y="147.9" width="671" height="24.65" shape-rendering="crispEdges"/><rect fill="#1e1e1e" x="671" y="147.9" width="122" height="24.65" shape-rendering="crispEdges"/><rect fill="#1e1e1e" x="793" y="147.9" width="671" height="24.65" shape-rendering="crispEdges"/><rect fill="#1e1e1e" x="0" y="172.3" width="1464" height="24.65" shape-rendering="crispEdges"/><rect fill="#1e1e1e" x="0" y="196.7" width="500.2" height="24.65" shape-rendering="crispEdges"/><rect fill="#1e1e1e" x="500.2" y="196.7" width="451.4" height="24.65" shape-rendering="crispEdges"/><rect fill="#1e1e1e" x="951.6" y="196.7" width="512.4" height="24.65" shape-rendering="crispEdges"/><rect fill="#1e1e1e" x="0" y="221.1" width="1464" height="24.65" shape-rendering="crispEdges"/><rect fill="#1e1e1e" x="0" y="245.5" width="1464" height="24.65" shape-rendering="crispEdges"/><rect fill="#1e1e1e" x="0" y="269.9" width="1464" height="24.65" shape-rendering="crispEdges"/><rect fill="#1e1e1e" x="0" y="294.3" width="1464" height="24.65" shape-rendering="crispEdges"/><rect fill="#1e1e1e" x="0" y="318.7" width="1464" height="24.65" shape-rendering="crispEdges"/><rect fill="#1e1e1e" x="0" y="343.1" width="634.4" height="24.65" shape-rendering="crispEdges"/><rect fill="#24292f" x="634.4" y="343.1" width="195.2" height="24.65" shape-rendering="crispEdges"/><rect fill="#1e1e1e" x="829.6" y="343.1" width="634.4" height="24.65" shape-rendering="crispEdges"/><rect fill="#1e1e1e" x="0" y="367.5" width="634.4" height="24.65" shape-rendering="crispEdges"/><rect fill="#24292f" x="634.4" y="367.5" width="48.8" height="24.65" shape-rendering="crispEdges"/><rect fill="#24292f" x="683.2" y="367.5" width="85.4" height="24.65" shape-rendering="crispEdges"/><rect fill="#24292f" x="768.6" y="367.5" width="61" height="24.65" shape-rendering="crispEdges"/><rect fill="#1e1e1e" x="829.6" y="367.5" width="634.4" height="24.65" shape-rendering="crispEdges"/><rect fill="#1e1e1e" x="0" y="391.9" width="634.4" height="24.65" shape-rendering="crispEdges"/><rect fill="#24292f" x="634.4" y="391.9" width="195.2" height="24.65" shape-rendering="crispEdges"/><rect fill="#1e1e1e" x="829.6" y="391.9" width="634.4" height="24.65" shape-rendering="crispEdges"/><rect fill="#1e1e1e" x="0" y="416.3" width="1464" height="24.65" shape-rendering="crispEdges"/><rect fill="#1e1e1e" x="0" y="440.7" width="1464" height="24.65" shape-rendering="crispEdges"/><rect fill="#1e1e1e" x="0" y="465.1" width="1464" height="24.65" shape-rendering="crispEdges"/><rect fill="#1e1e1e" x="0" y="489.5" width="1464" height="24.65" shape-rendering="crispEdges"/><rect fill="#1e1e1e" x="0" y="513.9" width="1464" height="24.65" shape-rendering="crispEdges"/><rect fill="#1e1e1e" x="0" y="538.3" width="1464" height="24.65" shape-rendering="crispEdges"/><rect fill="#1e1e1e" x="0" y="562.7" width="1464" height="24.65" shape-rendering="crispEdges"/><rect fill="#1e1e1e" x="0" y="587.1" width="1464" height="24.65" shape-rendering="crispEdges"/><rect fill="#1e1e1e" x="0" y="611.5" width="1464" height="24.65" shape-rendering="crispEdges"/><rect fill="#1e1e1e" x="0" y="635.9" width="1464" height="24.65" shape-rendering="crispEdges"/><rect fill="#1e1e1e" x="0" y="660.3" width="1464" height="24.65" shape-rendering="crispEdges"/><rect fill="#1e1e1e" x="0" y="684.7" width="1464" height="24.65" shape-rendering="crispEdges"/><rect fill="#0053aa" x="0" y="709.1" width="36.6" height="24.65" shape-rendering="crispEdges"/><rect fill="#0178d4" x="36.6" y="709.1" width="85.4" height="24.65" shape-rendering="crispEdges"/><rect fill="#0178d4" x="122" y="709.1" width="841.8" height="24.65" shape-rendering="crispEdges"/><rect fill="#0178d4" x="963.8" y="709.1" width="0" height="24.65" shape-rendering="crispEdges"/><rect fill="#0178d4" x="963.8" y="709.1" width="219.6" height="24.65" shape-rendering="crispEdges"/><rect fill="#0178d4" x="1183.4" y="709.1" width="85.4" height="24.65" shape-rendering="crispEdges"/><rect fill="#0178d4" x="1268.8" y="709.1" width="48.8" height="24.65" shape-rendering="crispEdges"/><rect fill="#0178d4" x="1317.6" y="709.1" width="146.4" height="24.65" shape-rendering="crispEdges"/>
    <g class="terminal-2628213164-matrix">
    <text class="terminal-2628213164-r2" x="12.2" y="20" textLength="12.2" clip-path="url(#terminal-2628213164-line-0)">⭘</text><text class="terminal-2628213164-r3" x="1354.2" y="20" textLength="97.6" clip-path="url(#terminal-2628213164-line-0)">16:56:12</text><text class="terminal-2628213164-r1" x="1464" y="20" textLength="12.2" clip-path="url(#terminal-2628213164-line-0)">
</text><text class="terminal-2628213164-r1" x="1464" y="44.4" textLength="12.2" clip-path="url(#terminal-2628213164-line-1)">
</text><text class="terminal-2628213164-r1" x="1464" y="68.8" textLength="12.2" clip-path="url(#terminal-2628213164-line-2)">
</text><text class="terminal-2628213164-r1" x="1464" y="93.2" textLength="12.2" clip-path="url(#terminal-2628213164-line-3)">
</text><text class="terminal-2628213164-r1" x="1464" y="117.6" textLength="12.2" clip-path="url(#terminal-2628213164-line-4)">
</text><text class="terminal-2628213164-r1" x="1464" y="142" textLength="12.2" clip-path="url(#terminal-2628213164-line-5)">
</text><text class="terminal-2628213164-r4" x="671" y="166.4" textLength="109.8" clip-path="url(#terminal-2628213164-line-6)">Welcome&#160;🎅</text><text class="terminal-2628213164-r1" x="1464" y="166.4" textLength="12.2" clip-path="url(#terminal-2628213164-line-6)">
</text><text class="terminal-2628213164-r1" x="1464" y="190.8" textLength="12.2" clip-path="url(#terminal-2628213164-line-7)">
</text><text class="terminal-2628213164-r5" x="500.2" y="215.2" textLength="451.4" clip-path="url(#terminal-2628213164-line-8)">Let&#x27;s&#160;prepare&#160;your&#160;Secret&#160;Santa&#160;draw!</text><text class="terminal-2628213164-r1" x="1464" y="215.2" textLength="12.2" clip-path="url(#terminal-2628213164-line-8)">
</text><text class="terminal-2628213164-r1" x="1464" y="239.6" textLength="12.2" clip-path="url(#terminal-2628213164-line-9)">
</text><text class="terminal-2628213164-r1" x="1464" y="264" textLength="12.2" clip-path="url(#terminal-2628213164-line-10)">
</text><text class="terminal-2628213164-r1" x="1464" y="288.4" textLength="12.2" clip-path="url(#terminal-2628213164-line-11)">
</text><text class="terminal-2628213164-r1" x="1464" y="312.8" textLength="12.2" clip-path="url(#terminal-2628213164-line-12)">
</text><text class="terminal-2628213164-r1" x="1464" y="337.2" textLength="12.2" clip-path="url(#terminal-2628213164-line-13)">
</text><text class="terminal-2628213164-r6" x="634.4" y="361.6" textLength="195.2" clip-path="url(#terminal-2628213164-line-14)">▔▔▔▔▔▔▔▔▔▔▔▔▔▔▔▔</text><text class="terminal-2628213164-r1" x="1464" y="361.6" textLength="12.2" clip-path="url(#terminal-2628213164-line-14)">
</text><text class="terminal-2628213164-r7" x="683.2" y="386" textLength="85.4" clip-path="url(#terminal-2628213164-line-15)">&#160;Start&#160;</text><text class="terminal-2628213164-r1" x="1464" y="386" textLength="12.2" clip-path="url(#terminal-2628213164-line-15)">
</text><text class="terminal-2628213164-r8" x="634.4" y="410.4" textLength="195.2" clip-path="url(#terminal-2628213164-line-16)">▁▁▁▁▁▁▁▁▁▁▁▁▁▁▁▁</text><text class="terminal-2628213164-r1" x="1464" y="410.4" textLength="12.2" clip-path="url(#terminal-2628213164-line-16)">
</text><text class="terminal-2628213164-r1" x="1464" y="434.8" textLength="12.2" clip-path="url(#terminal-2628213164-line-17)">
</text><text class="terminal-2628213164-r1" x="1464" y="459.2" textLength="12.2" clip-path="url(#terminal-2628213164-line-18)">
</text><text class="terminal-2628213164-r1" x="1464" y="483.6" textLength="12.2" clip-path="url(#terminal-2628213164-line-19)">
</text><text class="terminal-2628213164-r1" x="1464" y="508" textLength="12.2" clip-path="url(#terminal-2628213164-line-20)">
</text><text class="terminal-2628213164-r1" x="1464" y="532.4" textLength="12.2" clip-path="url(#terminal-2628213164-line-21)">
</text><text class="terminal-2628213164-r1" x="1464" y="556.8" textLength="12.2" clip-path="url(#terminal-2628213164-line-22)">
</text><text class="terminal-2628213164-r1" x="1464" y="581.2" textLength="12.2" clip-path="url(#terminal-2628213164-line-23)">
</text><text class="terminal-2628213164-r1" x="1464" y="605.6" textLength="12.2" clip-path="url(#terminal-2628213164-line-24)">
</text><text class="terminal-2628213164-r1" x="1464" y="630" textLength="12.2" clip-path="url(#terminal-2628213164-line-25)">
</text><text class="terminal-2628213164-r1" x="1464" y="654.4" textLength="12.2" clip-path="url(#terminal-2628213164-line-26)">
</text><text class="terminal-2628213164-r1" x="1464" y="678.8" textLength="12.2" clip-path="url(#terminal-2628213164-line-27)">
</text><text class="terminal-2628213164-r1" x="1464" y="703.2" textLength="12.2" clip-path="url(#terminal-2628213164-line-28)">
</text><text class="terminal-2628213164-r9" x="0" y="727.6" textLength="36.6" clip-path="url(#terminal-2628213164-line-29)">&#160;S&#160;</text><text class="terminal-2628213164-r10" x="36.6" y="727.6" textLength="85.4" clip-path="url(#terminal-2628213164-line-29)">&#160;Start&#160;</text><text class="terminal-2628213164-r10" x="963.8" y="727.6" textLength="207.4" clip-path="url(#terminal-2628213164-line-29)">Built&#160;with&#160;💜&#160;and&#160;</text><text class="terminal-2628213164-r10" x="1183.4" y="727.6" textLength="85.4" clip-path="url(#terminal-2628213164-line-29)">Textual</text><text class="terminal-2628213164-r10" x="1268.8" y="727.6" textLength="48.8" clip-path="url(#terminal-2628213164-line-29)">&#160;by&#160;</text><text class="terminal-2628213164-r10" x="1317.6" y="727.6" textLength="146.4" clip-path="url(#terminal-2628213164-line-29)">@mathsppblog</text>
    </g>
    </g>
</svg>
